VIDEO INFO:


Format                           : AVI
Format/Info                      : Audio Video Interleave
Format profile                   : OpenDML
File size                        : 2.41 GiB
Duration                         : 3h 5mn
Overall bit rate                 : 1 854 Kbps
Movie name                       : tcak.Title1.DVDRip
Writing application              : Lavf52.78.4
Original source form/Name        : tcak

Video
ID                               : 0
Format                           : MPEG-4 Visual
Format profile                   : Advanced Simple@L5
Format settings, BVOP            : 2
Format settings, QPel            : No
Format settings, GMC             : No warppoints
Format settings, Matrix          : Default (H.263)
Muxing mode                      : Packed bitstream
Codec ID                         : DX50
Codec ID/Hint                    : DivX 5
Duration                         : 3h 5mn
Bit rate                         : 1 396 Kbps
Width                            : 704 pixels
Height                           : 528 pixels
Display aspect ratio             : 4:3
Frame rate                       : 25.000 fps
Color space                      : YUV
Chroma subsampling               : 4:2:0
Bit depth                        : 8 bits
Scan type                        : Progressive
Compression mode                 : Lossy
Bits/(Pixel*Frame)               : 0.150
Stream size                      : 1.81 GiB (75%)
Writing library                  : XviD 1.2.1 (UTC 2008-12-04)

Audio
ID                               : 1
Format                           : AC-3
Format/Info                      : Audio Coding 3
Mode extension                   : CM (complete main)
Codec ID                         : 2000
Duration                         : 3h 5mn
Bit rate mode                    : Constant
Bit rate                         : 448 Kbps
Channel(s)                       : 6 channels
Channel positions                : Front: L C R, Side: L R, LFE
Sampling rate                    : 48.0 KHz
Bit depth                        : 16 bits
Compression mode                 : Lossy
Stream size                      : 82.7 MiB (3%)
Alignment                        : Aligned on interleaves
Interleave, duration             : 230 ms (5.76 video frames)
Interleave, preload duration     : 32 ms

-------------------------------------

Canada / Verenigde Staten
Misdaad / Thriller
360 minuten (miniserie, 2 delen)

geregisseerd door Eric Till
met Brian Dennehy, Michael Riley en Margot Kidder

Gebaseerd op het waargebeurde verhaal van seriemoordenaar John Wayne Gacy. Aan de ene kant was hij de goede vriend, een behulpzame buurman, had hij een groot talent tot vermaken en was hij een gerespecteerd zakenman, aan de andere kant de brute moordenaar en verkrachter van 30 jonge jongens. Het portret van een man met twee totaal verschillende persoonlijkheden.

-Ondertiteling (nederlands), apart bijgevoegd in de torrent.(.srt)

Geheel zelf vertaald.

Veel plezier ermee.


